<mxfile host="app.diagrams.net" modified="2020-11-30T10:35:49.685Z" agent="5.0 (Windows NT 10.0; Win64; x64) AppleWebKit/537.36 (KHTML, like Gecko) Chrome/87.0.4280.66 Safari/537.36" etag="kgRhcxEta-6vjSjFxR1z" version="13.10.4" type="github">
  <diagram id="yhKzklLa5L4SvI3uxZxp" name="Page-1">
    <mxGraphModel dx="1221" dy="645" grid="1" gridSize="10" guides="1" tooltips="1" connect="1" arrows="1" fold="1" page="1" pageScale="1" pageWidth="827" pageHeight="1169" math="0" shadow="0">
      <root>
        <mxCell id="0" />
        <mxCell id="1" parent="0" />
        <mxCell id="RW-8qwHfe2J_Tjm3vchA-3" value="" style="edgeStyle=orthogonalEdgeStyle;rounded=0;orthogonalLoop=1;jettySize=auto;html=1;fontSize=16;" edge="1" parent="1" source="RW-8qwHfe2J_Tjm3vchA-1" target="RW-8qwHfe2J_Tjm3vchA-2">
          <mxGeometry relative="1" as="geometry" />
        </mxCell>
        <mxCell id="RW-8qwHfe2J_Tjm3vchA-9" style="edgeStyle=orthogonalEdgeStyle;rounded=0;orthogonalLoop=1;jettySize=auto;html=1;fontSize=16;" edge="1" parent="1" source="RW-8qwHfe2J_Tjm3vchA-1" target="RW-8qwHfe2J_Tjm3vchA-4">
          <mxGeometry relative="1" as="geometry" />
        </mxCell>
        <mxCell id="RW-8qwHfe2J_Tjm3vchA-10" style="edgeStyle=orthogonalEdgeStyle;rounded=0;orthogonalLoop=1;jettySize=auto;html=1;fontSize=16;" edge="1" parent="1" source="RW-8qwHfe2J_Tjm3vchA-1" target="RW-8qwHfe2J_Tjm3vchA-5">
          <mxGeometry relative="1" as="geometry" />
        </mxCell>
        <mxCell id="RW-8qwHfe2J_Tjm3vchA-11" style="edgeStyle=orthogonalEdgeStyle;rounded=0;orthogonalLoop=1;jettySize=auto;html=1;fontSize=16;" edge="1" parent="1" source="RW-8qwHfe2J_Tjm3vchA-1" target="RW-8qwHfe2J_Tjm3vchA-6">
          <mxGeometry relative="1" as="geometry" />
        </mxCell>
        <mxCell id="RW-8qwHfe2J_Tjm3vchA-12" style="edgeStyle=orthogonalEdgeStyle;rounded=0;orthogonalLoop=1;jettySize=auto;html=1;fontSize=16;" edge="1" parent="1" source="RW-8qwHfe2J_Tjm3vchA-1" target="RW-8qwHfe2J_Tjm3vchA-7">
          <mxGeometry relative="1" as="geometry" />
        </mxCell>
        <mxCell id="RW-8qwHfe2J_Tjm3vchA-13" style="edgeStyle=orthogonalEdgeStyle;rounded=0;orthogonalLoop=1;jettySize=auto;html=1;fontSize=16;" edge="1" parent="1" source="RW-8qwHfe2J_Tjm3vchA-1" target="RW-8qwHfe2J_Tjm3vchA-8">
          <mxGeometry relative="1" as="geometry" />
        </mxCell>
        <mxCell id="RW-8qwHfe2J_Tjm3vchA-1" value="武汉大学校园导览系统" style="rounded=0;whiteSpace=wrap;html=1;fontSize=16;fontStyle=1" vertex="1" parent="1">
          <mxGeometry x="570" y="70" width="180" height="60" as="geometry" />
        </mxCell>
        <mxCell id="RW-8qwHfe2J_Tjm3vchA-19" style="edgeStyle=orthogonalEdgeStyle;rounded=0;orthogonalLoop=1;jettySize=auto;html=1;entryX=0.5;entryY=0;entryDx=0;entryDy=0;fontSize=16;" edge="1" parent="1" source="RW-8qwHfe2J_Tjm3vchA-2" target="RW-8qwHfe2J_Tjm3vchA-16">
          <mxGeometry relative="1" as="geometry" />
        </mxCell>
        <mxCell id="RW-8qwHfe2J_Tjm3vchA-21" style="edgeStyle=orthogonalEdgeStyle;rounded=0;orthogonalLoop=1;jettySize=auto;html=1;entryX=0.5;entryY=0;entryDx=0;entryDy=0;fontSize=16;" edge="1" parent="1" source="RW-8qwHfe2J_Tjm3vchA-2" target="RW-8qwHfe2J_Tjm3vchA-17">
          <mxGeometry relative="1" as="geometry" />
        </mxCell>
        <mxCell id="RW-8qwHfe2J_Tjm3vchA-22" style="edgeStyle=orthogonalEdgeStyle;rounded=0;orthogonalLoop=1;jettySize=auto;html=1;entryX=0.5;entryY=0;entryDx=0;entryDy=0;fontSize=16;" edge="1" parent="1" source="RW-8qwHfe2J_Tjm3vchA-2" target="RW-8qwHfe2J_Tjm3vchA-15">
          <mxGeometry relative="1" as="geometry" />
        </mxCell>
        <mxCell id="RW-8qwHfe2J_Tjm3vchA-2" value="&lt;span style=&quot;font-weight: normal&quot;&gt;&lt;font style=&quot;font-size: 14px&quot;&gt;数据管理&lt;/font&gt;&lt;/span&gt;" style="shape=process;whiteSpace=wrap;html=1;backgroundOutline=1;rounded=0;fontSize=16;fontStyle=1;flipH=0;" vertex="1" parent="1">
          <mxGeometry x="150" y="220" width="120" height="50" as="geometry" />
        </mxCell>
        <mxCell id="RW-8qwHfe2J_Tjm3vchA-4" value="&lt;span style=&quot;font-weight: normal&quot;&gt;&lt;font style=&quot;font-size: 14px&quot;&gt;地图浏览&lt;/font&gt;&lt;/span&gt;" style="shape=process;whiteSpace=wrap;html=1;backgroundOutline=1;rounded=0;fontSize=16;fontStyle=1;flipH=0;" vertex="1" parent="1">
          <mxGeometry x="368" y="220" width="120" height="50" as="geometry" />
        </mxCell>
        <mxCell id="RW-8qwHfe2J_Tjm3vchA-5" value="&lt;span style=&quot;font-weight: normal&quot;&gt;&lt;font style=&quot;font-size: 14px&quot;&gt;信息查询&lt;/font&gt;&lt;/span&gt;" style="shape=process;whiteSpace=wrap;html=1;backgroundOutline=1;rounded=0;fontSize=16;fontStyle=1;flipH=0;" vertex="1" parent="1">
          <mxGeometry x="527" y="220" width="120" height="50" as="geometry" />
        </mxCell>
        <mxCell id="RW-8qwHfe2J_Tjm3vchA-6" value="&lt;span style=&quot;font-weight: normal&quot;&gt;&lt;font style=&quot;font-size: 14px&quot;&gt;图层管理&lt;/font&gt;&lt;/span&gt;" style="shape=process;whiteSpace=wrap;html=1;backgroundOutline=1;rounded=0;fontSize=16;fontStyle=1;flipH=0;" vertex="1" parent="1">
          <mxGeometry x="685" y="220" width="120" height="50" as="geometry" />
        </mxCell>
        <mxCell id="RW-8qwHfe2J_Tjm3vchA-7" value="&lt;span style=&quot;font-weight: normal&quot;&gt;&lt;font style=&quot;font-size: 14px&quot;&gt;专题地图可视化&lt;/font&gt;&lt;/span&gt;" style="shape=process;whiteSpace=wrap;html=1;backgroundOutline=1;rounded=0;fontSize=16;fontStyle=1;flipH=0;" vertex="1" parent="1">
          <mxGeometry x="839" y="220" width="130" height="50" as="geometry" />
        </mxCell>
        <mxCell id="RW-8qwHfe2J_Tjm3vchA-8" value="&lt;span style=&quot;font-weight: normal&quot;&gt;&lt;font style=&quot;font-size: 14px&quot;&gt;三维地图可视化&lt;/font&gt;&lt;/span&gt;" style="shape=process;whiteSpace=wrap;html=1;backgroundOutline=1;rounded=0;fontSize=16;fontStyle=1;flipH=0;" vertex="1" parent="1">
          <mxGeometry x="997" y="220" width="130" height="50" as="geometry" />
        </mxCell>
        <mxCell id="RW-8qwHfe2J_Tjm3vchA-15" value="mxd" style="rounded=0;whiteSpace=wrap;html=1;fontSize=16;" vertex="1" parent="1">
          <mxGeometry x="126" y="350" width="40" height="110" as="geometry" />
        </mxCell>
        <mxCell id="RW-8qwHfe2J_Tjm3vchA-16" value="shp" style="rounded=0;whiteSpace=wrap;html=1;fontSize=16;" vertex="1" parent="1">
          <mxGeometry x="190" y="350" width="40" height="110" as="geometry" />
        </mxCell>
        <mxCell id="RW-8qwHfe2J_Tjm3vchA-17" value="lyr" style="rounded=0;whiteSpace=wrap;html=1;fontSize=16;" vertex="1" parent="1">
          <mxGeometry x="254" y="350" width="40" height="110" as="geometry" />
        </mxCell>
        <mxCell id="RW-8qwHfe2J_Tjm3vchA-23" value="地&lt;br&gt;图&lt;br&gt;缩&lt;br&gt;放" style="rounded=0;whiteSpace=wrap;html=1;fontSize=16;" vertex="1" parent="1">
          <mxGeometry x="350" y="350" width="40" height="110" as="geometry" />
        </mxCell>
        <mxCell id="RW-8qwHfe2J_Tjm3vchA-24" value="地&lt;br&gt;图&lt;br&gt;漫&lt;br&gt;游" style="rounded=0;whiteSpace=wrap;html=1;fontSize=16;" vertex="1" parent="1">
          <mxGeometry x="413" y="350" width="40" height="110" as="geometry" />
        </mxCell>
        <mxCell id="RW-8qwHfe2J_Tjm3vchA-25" value="全&lt;br&gt;图&lt;br&gt;展&lt;br&gt;示" style="rounded=0;whiteSpace=wrap;html=1;fontSize=16;" vertex="1" parent="1">
          <mxGeometry x="470" y="350" width="40" height="110" as="geometry" />
        </mxCell>
        <mxCell id="RW-8qwHfe2J_Tjm3vchA-26" value="鹰&lt;br&gt;眼&lt;br&gt;图" style="rounded=0;whiteSpace=wrap;html=1;fontSize=16;" vertex="1" parent="1">
          <mxGeometry x="527" y="350" width="40" height="110" as="geometry" />
        </mxCell>
      </root>
    </mxGraphModel>
  </diagram>
</mxfile>
